---
layout: post
title: "音频优化笔记"
description: ""
category: "tech"
tags: [ffmpeg,gac,audio]
published: false
---

### 声音音量检测

暴力 通过  ffmpeg -i audo.mp3 -af "volumedetect" -f null /dev/null

https://ffmpeg.org/ffmpeg-filters.html#volumedetect

``` text
$ ffmpeg -i ~/wKgDtVN0RD6xxWHRAB7nJzJPPoI183.mp3 -af 'volumedetect' -f null /dev/null

Input #0, mp3, from '/Users/caorong/wKgDtVN0RD6xxWHRAB7nJzJPPoI183.mp3':
  Metadata:
    encoder         : Lavf54.4.100
  Duration: 00:04:13.16, start: 0.000000, bitrate: 64 kb/s
    Stream #0:0: Audio: mp3, 44100 Hz, stereo, s16p, 64 kb/s
Output #0, null, to '/dev/null':
  Metadata:
    encoder         : Lavf55.33.100
    Stream #0:0: Audio: pcm_s16le, 44100 Hz, stereo, s16, 1411 kb/s
Stream mapping:
  Stream #0:0 -> #0:0 (mp3 -> pcm_s16le)
Press [q] to stop, [?] for help
size=N/A time=00:04:13.15 bitrate=N/A
video:0kB audio:43610kB subtitle:0 data:0 global headers:0kB muxing overhead -100.000046%
[Parsed_volumedetect_0 @ 0x7fd041c26ac0] n_samples: 22328064
[Parsed_volumedetect_0 @ 0x7fd041c26ac0] mean_volume: -12.5 dB
[Parsed_volumedetect_0 @ 0x7fd041c26ac0] max_volume: 0.0 dB
[Parsed_volumedetect_0 @ 0x7fd041c26ac0] histogram_0db: 5738
[Parsed_volumedetect_0 @ 0x7fd041c26ac0] histogram_1db: 19368
```

`n_samples` 采样样本数

`mean_volume` 平均音量

`histogram` 是db的直方图

这里的 db 负的越大表示越轻，测试下来50以上说明基本没声音了。

可以用 filter volume -db 来给所有帧全部减db


### 声音增益

1. 通过 filter ＋db的方式全局增音量 **deprcated**

	这种方式缺点是存在破音的可能，比如上面的声音检测出来 max_volume 是0，0db 的帧有5738个，那么如果我 全局＋ 1db，那么 着5k个帧都破音了。

2. 通过 webrtc 的 agc 自动增益

http://webrtc.googlecode.com/svn/trunk/webrtc/modules/audio_processing/agc/

上面是 webrtc 里面 agc 模块的源码，没有任何别的依赖，直接 自己写个main，然后 gcc *.c 即可编译。具体网上找。

他只能处理 pcm 文件，即一帧一帧的raw data，然后计算每一帧是否可以在不破音的前提下进行增益，也就是说，已经是 0dB 的话就不增益，－20dB 的话，比如说增益到－15dB。

注意。增益的同时背景噪音也稍稍变响了 ＝ ＝，如果有需要的话就继续降噪吧。。。。虽然难度有点大。

### aac

在低码率下， aac的音质优于mp3, 而且不是平级的对比，举个例子，24bit he_v2 格式的aac约等于 64bit 的 mp3。

有个地方要注意，ffmpeg 默认转出来的 aac ，他的索引信息是在文件尾部的，这也是为什么有些人说 aac 不能像 mp3 一样可以下载一部分听一部分。但编码加[这个](https://trac.ffmpeg.org/wiki/Encode/AAC#fdk_stream)就可以将索引放到前面，于是也就能和 mp3 一样了



